<svg width="36" height="37" viewBox="0 0 36 37" fill="none" xmlns="http://www.w3.org/2000/svg">
<path d="M34.6666 32.3333V19.29C34.6667 18.3825 34.4816 17.4846 34.1225 16.6512C33.7634 15.8178 33.2379 15.0665 32.5783 14.4433L20.29 2.83C19.6711 2.24487 18.8517 1.91885 18 1.91885C17.1483 1.91885 16.3289 2.24487 15.71 2.83L3.42165 14.4433C2.76202 15.0665 2.23657 15.8178 1.87748 16.6512C1.51839 17.4846 1.33322 18.3825 1.33331 19.29V32.3333C1.33331 33.2174 1.6845 34.0652 2.30962 34.6903C2.93474 35.3155 3.78259 35.6667 4.66665 35.6667H31.3333C32.2174 35.6667 33.0652 35.3155 33.6903 34.6903C34.3155 34.0652 34.6666 33.2174 34.6666 32.3333Z" stroke="black" stroke-width="3" stroke-linecap="round" stroke-linejoin="round"/>
</svg>
