<svg width="38" height="38" viewBox="0 0 38 38" fill="none" xmlns="http://www.w3.org/2000/svg">
<path d="M19 2.375C23.4092 2.375 27.6379 4.12656 30.7556 7.24435C33.8734 10.3621 35.625 14.5908 35.625 19C35.625 23.4092 33.8734 27.6379 30.7556 30.7556C27.6379 33.8734 23.4092 35.625 19 35.625C14.5908 35.625 10.3621 33.8734 7.24435 30.7556C4.12656 27.6379 2.375 23.4092 2.375 19C2.375 14.5908 4.12656 10.3621 7.24435 7.24435C10.3621 4.12656 14.5908 2.375 19 2.375ZM19 33.25C22.7793 33.25 26.4039 31.7487 29.0763 29.0763C31.7487 26.4039 33.25 22.7793 33.25 19C33.25 15.2207 31.7487 11.5961 29.0763 8.92373C26.4039 6.25133 22.7793 4.75 19 4.75C15.2207 4.75 11.5961 6.25133 8.92373 8.92373C6.25133 11.5961 4.75 15.2207 4.75 19C4.75 22.7793 6.25133 26.4039 8.92373 29.0763C11.5961 31.7487 15.2207 33.25 19 33.25ZM15.4375 13.0625C16.2292 13.0625 16.625 13.4583 16.625 14.25V23.75C16.625 24.5417 16.2292 24.9375 15.4375 24.9375C14.6458 24.9375 14.25 24.5417 14.25 23.75V14.25C14.25 13.4583 14.6458 13.0625 15.4375 13.0625ZM22.5625 13.0625C23.3542 13.0625 23.75 13.4583 23.75 14.25V23.75C23.75 24.5417 23.3542 24.9375 22.5625 24.9375C21.7708 24.9375 21.375 24.5417 21.375 23.75V14.25C21.375 13.4583 21.7708 13.0625 22.5625 13.0625Z" fill="#4055C0"/>
</svg>
