<svg width="24" height="24" viewBox="0 0 24 24" fill="none" xmlns="http://www.w3.org/2000/svg">
<path d="M20.78 8.37006C20.6129 8.16319 20.3705 8.03117 20.1061 8.00304C19.8416 7.97491 19.5769 8.05297 19.37 8.22006C19.1631 8.38715 19.0311 8.62957 19.003 8.89399C18.9748 9.15842 19.0529 9.42319 19.22 9.63006C19.7252 10.317 19.9977 11.1474 19.9977 12.0001C19.9977 12.8528 19.7252 13.6831 19.22 14.3701C19.1008 14.517 19.0257 14.6948 19.0035 14.8827C18.9813 15.0706 19.0129 15.261 19.0945 15.4317C19.1762 15.6024 19.3047 15.7464 19.465 15.847C19.6252 15.9476 19.8108 16.0007 20 16.0001C20.1494 16.0006 20.297 15.9676 20.432 15.9036C20.567 15.8395 20.6859 15.7461 20.78 15.6301C21.5732 14.5861 22.0026 13.3111 22.0026 12.0001C22.0026 10.689 21.5732 9.41398 20.78 8.37006V8.37006ZM16.47 3.12006C16.318 3.03229 16.1455 2.98608 15.97 2.98608C15.7945 2.98608 15.622 3.03229 15.47 3.12006L9 7.57006H4C3.73478 7.57006 3.48043 7.67542 3.29289 7.86295C3.10536 8.05049 3 8.30484 3 8.57006V15.4301C3 15.6953 3.10536 15.9496 3.29289 16.1372C3.48043 16.3247 3.73478 16.4301 4 16.4301H9L15.41 20.8301C15.5856 20.9437 15.7909 21.0028 16 21.0001C16.2652 21.0001 16.5196 20.8947 16.7071 20.7072C16.8946 20.5196 17 20.2653 17 20.0001V4.00006C16.9995 3.81915 16.95 3.64177 16.8566 3.4868C16.7633 3.33183 16.6297 3.20508 16.47 3.12006V3.12006ZM15 18.1001L9.9 14.6001C9.73164 14.4869 9.53284 14.4276 9.33 14.4301H5V9.57006H9.33C9.53284 9.57252 9.73164 9.51323 9.9 9.40006L15 5.90006V18.1001Z" fill="black"/>
</svg>
